[2022-11-21 13:34:55,454] INFO: ffprobe running command: ffprobe -show_format -show_streams -of json sample_video.mp4
[2022-11-21 13:34:55,520] INFO: ffprobe executed command successfully!
[2022-11-21 13:34:55,520] INFO: [Errno 2] No such file or directory: ''
[2022-11-21 13:34:55,520] DEBUG: Using selector: EpollSelector
[2022-11-21 13:34:55,521] INFO: ffmpeg running command: ffmpeg -y -i sample_video.mp4 -c:v libx264 -c:a aac -bf 1 -keyint_min 25 -g 250 -sc_threshold 40 -use_timeline 1 -use_template 1 -init_seg_name dash_init_$RepresentationID$.$ext$ -media_seg_name dash_chunk_$RepresentationID$_$Number%05d$.$ext$ -f dash -map 0 -s:v:0 1280x720 -b:v:0 937k -b:a:0 375k -map 0 -s:v:1 854x480 -b:v:1 469k -b:a:1 187k -map 0 -s:v:2 640x360 -b:v:2 375k -b:a:2 150k -map 0 -s:v:3 426x240 -b:v:3 312k -b:a:3 125k -map 0 -s:v:4 256x144 -b:v:4 268k -b:a:4 107k -strict -2 /dash.mpd
[2022-11-21 13:34:55,652] ERROR: ffmpeg failed to execute command: ['ffmpeg version 5.1.2-1 Copyright (c) 2000-2022 the FFmpeg developers', 'built with gcc 12 (Debian 12.2.0-3)', 'configuration: --prefix=/usr --extra-version=1 --toolchain=hardened --libdir=/usr/lib/x86_64-linux-gnu --incdir=/usr/include/x86_64-linux-gnu --arch=amd64 --enable-gpl --disable-stripping --enable-gnutls --enable-ladspa --enable-libaom --enable-libass --enable-libbluray --enable-libbs2b --enable-libcaca --enable-libcdio --enable-libcodec2 --enable-libdav1d --enable-libflite --enable-libfontconfig --enable-libfreetype --enable-libfribidi --enable-libglslang --enable-libgme --enable-libgsm --enable-libjack --enable-libmp3lame --enable-libmysofa --enable-libopenjpeg --enable-libopenmpt --enable-libopus --enable-libpulse --enable-librabbitmq --enable-librist --enable-librubberband --enable-libshine --enable-libsnappy --enable-libsoxr --enable-libspeex --enable-libsrt --enable-libssh --enable-libsvtav1 --enable-libtheora --enable-libtwolame --enable-libvidstab --enable-libvorbis --enable-libvpx --enable-libwebp --enable-libx265 --enable-libxml2 --enable-libxvid --enable-libzimg --enable-libzmq --enable-libzvbi --enable-lv2 --enable-omx --enable-openal --enable-opencl --enable-opengl --enable-sdl2 --disable-sndio --enable-pocketsphinx --enable-librsvg --enable-libmfx --enable-libdc1394 --enable-libdrm --enable-libiec61883 --enable-chromaprint --enable-frei0r --enable-libx264 --enable-libplacebo --enable-librav1e --enable-shared', 'libavutil      57. 28.100 / 57. 28.100', 'libavcodec     59. 37.100 / 59. 37.100', 'libavformat    59. 27.100 / 59. 27.100', 'libavdevice    59.  7.100 / 59.  7.100', 'libavfilter     8. 44.100 /  8. 44.100', 'libswscale      6.  7.100 /  6.  7.100', 'libswresample   4.  7.100 /  4.  7.100', 'libpostproc    56.  6.100 / 56.  6.100', "Input #0, mov,mp4,m4a,3gp,3g2,mj2, from 'sample_video.mp4':", 'Metadata:', 'major_brand     : isom', 'minor_version   : 512', 'compatible_brands: isomiso2avc1mp41', 'creation_time   : 1970-01-01T00:00:00.000000Z', 'encoder         : Lavf53.24.2', 'Duration: 00:01:02.32, start: 0.000000, bitrate: 1347 kb/s', 'Stream #0:0[0x1](und): Video: h264 (Main) (avc1 / 0x31637661), yuv420p(progressive), 1280x720 [SAR 1:1 DAR 16:9], 959 kb/s, 25 fps, 25 tbr, 12800 tbn (default)', 'Metadata:', 'creation_time   : 1970-01-01T00:00:00.000000Z', 'handler_name    : VideoHandler', 'vendor_id       : [0][0][0][0]', 'Stream #0:1[0x2](und): Audio: aac (LC) (mp4a / 0x6134706D), 48000 Hz, 5.1, fltp, 383 kb/s (default)', 'Metadata:', 'creation_time   : 1970-01-01T00:00:00.000000Z', 'handler_name    : SoundHandler', 'vendor_id       : [0][0][0][0]', 'Stream mapping:', 'Stream #0:0 -> #0:0 (h264 (native) -> h264 (libx264))', 'Stream #0:1 -> #0:1 (aac (native) -> aac (native))', 'Stream #0:0 -> #0:2 (h264 (native) -> h264 (libx264))', 'Stream #0:1 -> #0:3 (aac (native) -> aac (native))', 'Stream #0:0 -> #0:4 (h264 (native) -> h264 (libx264))', 'Stream #0:1 -> #0:5 (aac (native) -> aac (native))', 'Stream #0:0 -> #0:6 (h264 (native) -> h264 (libx264))', 'Stream #0:1 -> #0:7 (aac (native) -> aac (native))', 'Stream #0:0 -> #0:8 (h264 (native) -> h264 (libx264))', 'Stream #0:1 -> #0:9 (aac (native) -> aac (native))', 'Press [q] to stop, [?] for help', '[libx264 @ 0x562fd83a8080] using SAR=1/1', '[libx264 @ 0x562fd83a8080] using cpu capabilities: MMX2 SSE2Fast SSSE3 SSE4.2 AVX BMI2', '[libx264 @ 0x562fd83a8080] profile High, level 3.1, 4:2:0, 8-bit', '[libx264 @ 0x562fd83a8080] 264 - core 164 r3095 baee400 - H.264/MPEG-4 AVC codec - Copyleft 2003-2022 - http://www.videolan.org/x264.html - options: cabac=1 ref=3 deblock=1:0:0 analyse=0x3:0x113 me=hex subme=7 psy=1 psy_rd=1.00:0.00 mixed_ref=1 me_range=16 chroma_me=1 trellis=1 8x8dct=1 cqm=0 deadzone=21,11 fast_pskip=1 chroma_qp_offset=-2 threads=6 lookahead_threads=1 sliced_threads=0 nr=0 decimate=1 interlaced=0 bluray_compat=0 constrained_intra=0 bframes=1 b_pyramid=0 b_adapt=1 b_bias=0 direct=1 weightb=1 open_gop=0 weightp=2 keyint=250 keyint_min=25 scenecut=40 intra_refresh=0 rc_lookahead=40 rc=abr mbtree=1 bitrate=937 ratetol=1.0 qcomp=0.60 qpmin=0 qpmax=69 qpstep=4 ip_ratio=1.40 aq=1:1.00', '[libx264 @ 0x562fd83aea00] using SAR=1280/1281', '[libx264 @ 0x562fd83aea00] using cpu capabilities: MMX2 SSE2Fast SSSE3 SSE4.2 AVX BMI2', '[libx264 @ 0x562fd83aea00] profile High, level 3.0, 4:2:0, 8-bit', '[libx264 @ 0x562fd83aea00] 264 - core 164 r3095 baee400 - H.264/MPEG-4 AVC codec - Copyleft 2003-2022 - http://www.videolan.org/x264.html - options: cabac=1 ref=3 deblock=1:0:0 analyse=0x3:0x113 me=hex subme=7 psy=1 psy_rd=1.00:0.00 mixed_ref=1 me_range=16 chroma_me=1 trellis=1 8x8dct=1 cqm=0 deadzone=21,11 fast_pskip=1 chroma_qp_offset=-2 threads=6 lookahead_threads=1 sliced_threads=0 nr=0 decimate=1 interlaced=0 bluray_compat=0 constrained_intra=0 bframes=1 b_pyramid=0 b_adapt=1 b_bias=0 direct=1 weightb=1 open_gop=0 weightp=2 keyint=250 keyint_min=25 scenecut=40 intra_refresh=0 rc_lookahead=40 rc=abr mbtree=1 bitrate=469 ratetol=1.0 qcomp=0.60 qpmin=0 qpmax=69 qpstep=4 ip_ratio=1.40 aq=1:1.00', '[libx264 @ 0x562fd83a3600] using SAR=1/1', '[libx264 @ 0x562fd83a3600] using cpu capabilities: MMX2 SSE2Fast SSSE3 SSE4.2 AVX BMI2', '[libx264 @ 0x562fd83a3600] profile High, level 3.0, 4:2:0, 8-bit', '[libx264 @ 0x562fd83a3600] 264 - core 164 r3095 baee400 - H.264/MPEG-4 AVC codec - Copyleft 2003-2022 - http://www.videolan.org/x264.html - options: cabac=1 ref=3 deblock=1:0:0 analyse=0x3:0x113 me=hex subme=7 psy=1 psy_rd=1.00:0.00 mixed_ref=1 me_range=16 chroma_me=1 trellis=1 8x8dct=1 cqm=0 deadzone=21,11 fast_pskip=1 chroma_qp_offset=-2 threads=6 lookahead_threads=1 sliced_threads=0 nr=0 decimate=1 interlaced=0 bluray_compat=0 constrained_intra=0 bframes=1 b_pyramid=0 b_adapt=1 b_bias=0 direct=1 weightb=1 open_gop=0 weightp=2 keyint=250 keyint_min=25 scenecut=40 intra_refresh=0 rc_lookahead=40 rc=abr mbtree=1 bitrate=375 ratetol=1.0 qcomp=0.60 qpmin=0 qpmax=69 qpstep=4 ip_ratio=1.40 aq=1:1.00', '[libx264 @ 0x562fd83a1240] using SAR=640/639', '[libx264 @ 0x562fd83a1240] using cpu capabilities: MMX2 SSE2Fast SSSE3 SSE4.2 AVX BMI2', '[libx264 @ 0x562fd83a1240] profile High, level 2.1, 4:2:0, 8-bit', '[libx264 @ 0x562fd83a1240] 264 - core 164 r3095 baee400 - H.264/MPEG-4 AVC codec - Copyleft 2003-2022 - http://www.videolan.org/x264.html - options: cabac=1 ref=3 deblock=1:0:0 analyse=0x3:0x113 me=hex subme=7 psy=1 psy_rd=1.00:0.00 mixed_ref=1 me_range=16 chroma_me=1 trellis=1 8x8dct=1 cqm=0 deadzone=21,11 fast_pskip=1 chroma_qp_offset=-2 threads=6 lookahead_threads=1 sliced_threads=0 nr=0 decimate=1 interlaced=0 bluray_compat=0 constrained_intra=0 bframes=1 b_pyramid=0 b_adapt=1 b_bias=0 direct=1 weightb=1 open_gop=0 weightp=2 keyint=250 keyint_min=25 scenecut=40 intra_refresh=0 rc_lookahead=40 rc=abr mbtree=1 bitrate=312 ratetol=1.0 qcomp=0.60 qpmin=0 qpmax=69 qpstep=4 ip_ratio=1.40 aq=1:1.00', '[libx264 @ 0x562fd83abe40] using SAR=1/1', '[libx264 @ 0x562fd83abe40] using cpu capabilities: MMX2 SSE2Fast SSSE3 SSE4.2 AVX BMI2', '[libx264 @ 0x562fd83abe40] profile High, level 1.3, 4:2:0, 8-bit', '[libx264 @ 0x562fd83abe40] 264 - core 164 r3095 baee400 - H.264/MPEG-4 AVC codec - Copyleft 2003-2022 - http://www.videolan.org/x264.html - options: cabac=1 ref=3 deblock=1:0:0 analyse=0x3:0x113 me=hex subme=7 psy=1 psy_rd=1.00:0.00 mixed_ref=1 me_range=16 chroma_me=1 trellis=1 8x8dct=1 cqm=0 deadzone=21,11 fast_pskip=1 chroma_qp_offset=-2 threads=4 lookahead_threads=1 sliced_threads=0 nr=0 decimate=1 interlaced=0 bluray_compat=0 constrained_intra=0 bframes=1 b_pyramid=0 b_adapt=1 b_bias=0 direct=1 weightb=1 open_gop=0 weightp=2 keyint=250 keyint_min=25 scenecut=40 intra_refresh=0 rc_lookahead=40 rc=abr mbtree=1 bitrate=268 ratetol=1.0 qcomp=0.60 qpmin=0 qpmax=69 qpstep=4 ip_ratio=1.40 aq=1:1.00', "[dash @ 0x562fd83a0a40] Opening '/dash_init_0.m4s' for writing", 'Could not write header for output file #0 (incorrect codec parameters ?): Permission denied', 'Error initializing output stream 0:8 --', '[libx264 @ 0x562fd83a8080] final ratefactor: 28.92', '[aac @ 0x562fd83ae240] Qavg: 14048.350', '[aac @ 0x562fd83ae240] 2 frames left in the queue on closing', '[libx264 @ 0x562fd83aea00] final ratefactor: 31.46', '[aac @ 0x562fd83a9c80] Qavg: 9443.786', '[aac @ 0x562fd83a9c80] 2 frames left in the queue on closing', '[libx264 @ 0x562fd83a3600] final ratefactor: 30.95', '[aac @ 0x562fd83a4880] Qavg: 7517.056', '[aac @ 0x562fd83a4880] 2 frames left in the queue on closing', '[libx264 @ 0x562fd83a1240] final ratefactor: 28.99', '[aac @ 0x562fd83ab180] Qavg: 5065.700', '[aac @ 0x562fd83ab180] 2 frames left in the queue on closing', '[libx264 @ 0x562fd83abe40] final ratefactor: 25.83', '[aac @ 0x562fd83de3c0] Qavg: 3870.008', '[aac @ 0x562fd83de3c0] 2 frames left in the queue on closing', 'Conversion failed!']
[2022-11-21 13:35:09,287] INFO: ffprobe running command: ffprobe -show_format -show_streams -of json sample_video.mp4
[2022-11-21 13:35:09,339] INFO: ffprobe executed command successfully!
[2022-11-21 13:35:09,340] DEBUG: Using selector: EpollSelector
[2022-11-21 13:35:09,340] INFO: ffmpeg running command: ffmpeg -y -i sample_video.mp4 -c:v libx264 -c:a aac -bf 1 -keyint_min 25 -g 250 -sc_threshold 40 -use_timeline 1 -use_template 1 -init_seg_name sample_video_init_$RepresentationID$.$ext$ -media_seg_name sample_video_chunk_$RepresentationID$_$Number%05d$.$ext$ -f dash -map 0 -s:v:0 1280x720 -b:v:0 937k -b:a:0 375k -map 0 -s:v:1 854x480 -b:v:1 469k -b:a:1 187k -map 0 -s:v:2 640x360 -b:v:2 375k -b:a:2 150k -map 0 -s:v:3 426x240 -b:v:3 312k -b:a:3 125k -map 0 -s:v:4 256x144 -b:v:4 268k -b:a:4 107k -strict -2 /sample_video.mpd
[2022-11-21 13:35:09,465] ERROR: ffmpeg failed to execute command: ['ffmpeg version 5.1.2-1 Copyright (c) 2000-2022 the FFmpeg developers', 'built with gcc 12 (Debian 12.2.0-3)', 'configuration: --prefix=/usr --extra-version=1 --toolchain=hardened --libdir=/usr/lib/x86_64-linux-gnu --incdir=/usr/include/x86_64-linux-gnu --arch=amd64 --enable-gpl --disable-stripping --enable-gnutls --enable-ladspa --enable-libaom --enable-libass --enable-libbluray --enable-libbs2b --enable-libcaca --enable-libcdio --enable-libcodec2 --enable-libdav1d --enable-libflite --enable-libfontconfig --enable-libfreetype --enable-libfribidi --enable-libglslang --enable-libgme --enable-libgsm --enable-libjack --enable-libmp3lame --enable-libmysofa --enable-libopenjpeg --enable-libopenmpt --enable-libopus --enable-libpulse --enable-librabbitmq --enable-librist --enable-librubberband --enable-libshine --enable-libsnappy --enable-libsoxr --enable-libspeex --enable-libsrt --enable-libssh --enable-libsvtav1 --enable-libtheora --enable-libtwolame --enable-libvidstab --enable-libvorbis --enable-libvpx --enable-libwebp --enable-libx265 --enable-libxml2 --enable-libxvid --enable-libzimg --enable-libzmq --enable-libzvbi --enable-lv2 --enable-omx --enable-openal --enable-opencl --enable-opengl --enable-sdl2 --disable-sndio --enable-pocketsphinx --enable-librsvg --enable-libmfx --enable-libdc1394 --enable-libdrm --enable-libiec61883 --enable-chromaprint --enable-frei0r --enable-libx264 --enable-libplacebo --enable-librav1e --enable-shared', 'libavutil      57. 28.100 / 57. 28.100', 'libavcodec     59. 37.100 / 59. 37.100', 'libavformat    59. 27.100 / 59. 27.100', 'libavdevice    59.  7.100 / 59.  7.100', 'libavfilter     8. 44.100 /  8. 44.100', 'libswscale      6.  7.100 /  6.  7.100', 'libswresample   4.  7.100 /  4.  7.100', 'libpostproc    56.  6.100 / 56.  6.100', "Input #0, mov,mp4,m4a,3gp,3g2,mj2, from 'sample_video.mp4':", 'Metadata:', 'major_brand     : isom', 'minor_version   : 512', 'compatible_brands: isomiso2avc1mp41', 'creation_time   : 1970-01-01T00:00:00.000000Z', 'encoder         : Lavf53.24.2', 'Duration: 00:01:02.32, start: 0.000000, bitrate: 1347 kb/s', 'Stream #0:0[0x1](und): Video: h264 (Main) (avc1 / 0x31637661), yuv420p(progressive), 1280x720 [SAR 1:1 DAR 16:9], 959 kb/s, 25 fps, 25 tbr, 12800 tbn (default)', 'Metadata:', 'creation_time   : 1970-01-01T00:00:00.000000Z', 'handler_name    : VideoHandler', 'vendor_id       : [0][0][0][0]', 'Stream #0:1[0x2](und): Audio: aac (LC) (mp4a / 0x6134706D), 48000 Hz, 5.1, fltp, 383 kb/s (default)', 'Metadata:', 'creation_time   : 1970-01-01T00:00:00.000000Z', 'handler_name    : SoundHandler', 'vendor_id       : [0][0][0][0]', 'Stream mapping:', 'Stream #0:0 -> #0:0 (h264 (native) -> h264 (libx264))', 'Stream #0:1 -> #0:1 (aac (native) -> aac (native))', 'Stream #0:0 -> #0:2 (h264 (native) -> h264 (libx264))', 'Stream #0:1 -> #0:3 (aac (native) -> aac (native))', 'Stream #0:0 -> #0:4 (h264 (native) -> h264 (libx264))', 'Stream #0:1 -> #0:5 (aac (native) -> aac (native))', 'Stream #0:0 -> #0:6 (h264 (native) -> h264 (libx264))', 'Stream #0:1 -> #0:7 (aac (native) -> aac (native))', 'Stream #0:0 -> #0:8 (h264 (native) -> h264 (libx264))', 'Stream #0:1 -> #0:9 (aac (native) -> aac (native))', 'Press [q] to stop, [?] for help', '[libx264 @ 0x565386671080] using SAR=1/1', '[libx264 @ 0x565386671080] using cpu capabilities: MMX2 SSE2Fast SSSE3 SSE4.2 AVX BMI2', '[libx264 @ 0x565386671080] profile High, level 3.1, 4:2:0, 8-bit', '[libx264 @ 0x565386671080] 264 - core 164 r3095 baee400 - H.264/MPEG-4 AVC codec - Copyleft 2003-2022 - http://www.videolan.org/x264.html - options: cabac=1 ref=3 deblock=1:0:0 analyse=0x3:0x113 me=hex subme=7 psy=1 psy_rd=1.00:0.00 mixed_ref=1 me_range=16 chroma_me=1 trellis=1 8x8dct=1 cqm=0 deadzone=21,11 fast_pskip=1 chroma_qp_offset=-2 threads=6 lookahead_threads=1 sliced_threads=0 nr=0 decimate=1 interlaced=0 bluray_compat=0 constrained_intra=0 bframes=1 b_pyramid=0 b_adapt=1 b_bias=0 direct=1 weightb=1 open_gop=0 weightp=2 keyint=250 keyint_min=25 scenecut=40 intra_refresh=0 rc_lookahead=40 rc=abr mbtree=1 bitrate=937 ratetol=1.0 qcomp=0.60 qpmin=0 qpmax=69 qpstep=4 ip_ratio=1.40 aq=1:1.00', '[libx264 @ 0x565386677a00] using SAR=1280/1281', '[libx264 @ 0x565386677a00] using cpu capabilities: MMX2 SSE2Fast SSSE3 SSE4.2 AVX BMI2', '[libx264 @ 0x565386677a00] profile High, level 3.0, 4:2:0, 8-bit', '[libx264 @ 0x565386677a00] 264 - core 164 r3095 baee400 - H.264/MPEG-4 AVC codec - Copyleft 2003-2022 - http://www.videolan.org/x264.html - options: cabac=1 ref=3 deblock=1:0:0 analyse=0x3:0x113 me=hex subme=7 psy=1 psy_rd=1.00:0.00 mixed_ref=1 me_range=16 chroma_me=1 trellis=1 8x8dct=1 cqm=0 deadzone=21,11 fast_pskip=1 chroma_qp_offset=-2 threads=6 lookahead_threads=1 sliced_threads=0 nr=0 decimate=1 interlaced=0 bluray_compat=0 constrained_intra=0 bframes=1 b_pyramid=0 b_adapt=1 b_bias=0 direct=1 weightb=1 open_gop=0 weightp=2 keyint=250 keyint_min=25 scenecut=40 intra_refresh=0 rc_lookahead=40 rc=abr mbtree=1 bitrate=469 ratetol=1.0 qcomp=0.60 qpmin=0 qpmax=69 qpstep=4 ip_ratio=1.40 aq=1:1.00', '[libx264 @ 0x56538666c600] using SAR=1/1', '[libx264 @ 0x56538666c600] using cpu capabilities: MMX2 SSE2Fast SSSE3 SSE4.2 AVX BMI2', '[libx264 @ 0x56538666c600] profile High, level 3.0, 4:2:0, 8-bit', '[libx264 @ 0x56538666c600] 264 - core 164 r3095 baee400 - H.264/MPEG-4 AVC codec - Copyleft 2003-2022 - http://www.videolan.org/x264.html - options: cabac=1 ref=3 deblock=1:0:0 analyse=0x3:0x113 me=hex subme=7 psy=1 psy_rd=1.00:0.00 mixed_ref=1 me_range=16 chroma_me=1 trellis=1 8x8dct=1 cqm=0 deadzone=21,11 fast_pskip=1 chroma_qp_offset=-2 threads=6 lookahead_threads=1 sliced_threads=0 nr=0 decimate=1 interlaced=0 bluray_compat=0 constrained_intra=0 bframes=1 b_pyramid=0 b_adapt=1 b_bias=0 direct=1 weightb=1 open_gop=0 weightp=2 keyint=250 keyint_min=25 scenecut=40 intra_refresh=0 rc_lookahead=40 rc=abr mbtree=1 bitrate=375 ratetol=1.0 qcomp=0.60 qpmin=0 qpmax=69 qpstep=4 ip_ratio=1.40 aq=1:1.00', '[libx264 @ 0x565386669fc0] using SAR=640/639', '[libx264 @ 0x565386669fc0] using cpu capabilities: MMX2 SSE2Fast SSSE3 SSE4.2 AVX BMI2', '[libx264 @ 0x565386669fc0] profile High, level 2.1, 4:2:0, 8-bit', '[libx264 @ 0x565386669fc0] 264 - core 164 r3095 baee400 - H.264/MPEG-4 AVC codec - Copyleft 2003-2022 - http://www.videolan.org/x264.html - options: cabac=1 ref=3 deblock=1:0:0 analyse=0x3:0x113 me=hex subme=7 psy=1 psy_rd=1.00:0.00 mixed_ref=1 me_range=16 chroma_me=1 trellis=1 8x8dct=1 cqm=0 deadzone=21,11 fast_pskip=1 chroma_qp_offset=-2 threads=6 lookahead_threads=1 sliced_threads=0 nr=0 decimate=1 interlaced=0 bluray_compat=0 constrained_intra=0 bframes=1 b_pyramid=0 b_adapt=1 b_bias=0 direct=1 weightb=1 open_gop=0 weightp=2 keyint=250 keyint_min=25 scenecut=40 intra_refresh=0 rc_lookahead=40 rc=abr mbtree=1 bitrate=312 ratetol=1.0 qcomp=0.60 qpmin=0 qpmax=69 qpstep=4 ip_ratio=1.40 aq=1:1.00', '[libx264 @ 0x565386674bc0] using SAR=1/1', '[libx264 @ 0x565386674bc0] using cpu capabilities: MMX2 SSE2Fast SSSE3 SSE4.2 AVX BMI2', '[libx264 @ 0x565386674bc0] profile High, level 1.3, 4:2:0, 8-bit', '[libx264 @ 0x565386674bc0] 264 - core 164 r3095 baee400 - H.264/MPEG-4 AVC codec - Copyleft 2003-2022 - http://www.videolan.org/x264.html - options: cabac=1 ref=3 deblock=1:0:0 analyse=0x3:0x113 me=hex subme=7 psy=1 psy_rd=1.00:0.00 mixed_ref=1 me_range=16 chroma_me=1 trellis=1 8x8dct=1 cqm=0 deadzone=21,11 fast_pskip=1 chroma_qp_offset=-2 threads=4 lookahead_threads=1 sliced_threads=0 nr=0 decimate=1 interlaced=0 bluray_compat=0 constrained_intra=0 bframes=1 b_pyramid=0 b_adapt=1 b_bias=0 direct=1 weightb=1 open_gop=0 weightp=2 keyint=250 keyint_min=25 scenecut=40 intra_refresh=0 rc_lookahead=40 rc=abr mbtree=1 bitrate=268 ratetol=1.0 qcomp=0.60 qpmin=0 qpmax=69 qpstep=4 ip_ratio=1.40 aq=1:1.00', "[dash @ 0x565386669a40] Opening '/sample_video_init_0.m4s' for writing", 'Could not write header for output file #0 (incorrect codec parameters ?): Permission denied', 'Error initializing output stream 0:8 --', '[libx264 @ 0x565386671080] final ratefactor: 28.92', '[aac @ 0x565386677240] Qavg: 14048.350', '[aac @ 0x565386677240] 2 frames left in the queue on closing', '[libx264 @ 0x565386677a00] final ratefactor: 31.46', '[aac @ 0x565386672c80] Qavg: 9443.786', '[aac @ 0x565386672c80] 2 frames left in the queue on closing', '[libx264 @ 0x56538666c600] final ratefactor: 30.95', '[aac @ 0x56538668da80] Qavg: 7517.056', '[aac @ 0x56538668da80] 2 frames left in the queue on closing', '[libx264 @ 0x565386669fc0] final ratefactor: 28.99', '[aac @ 0x56538666ae00] Qavg: 5065.700', '[aac @ 0x56538666ae00] 2 frames left in the queue on closing', '[libx264 @ 0x565386674bc0] final ratefactor: 25.83', '[aac @ 0x565386675600] Qavg: 3870.008', '[aac @ 0x565386675600] 2 frames left in the queue on closing', 'Conversion failed!']
[2022-11-21 13:35:49,972] INFO: ffprobe running command: ffprobe -show_format -show_streams -of json sample_video.mp4
[2022-11-21 13:35:50,023] INFO: ffprobe executed command successfully!
[2022-11-21 13:35:50,024] DEBUG: Using selector: EpollSelector
[2022-11-21 13:35:50,024] INFO: ffmpeg running command: ffmpeg -y -i sample_video.mp4 -c:v libx264 -c:a aac -bf 1 -keyint_min 25 -g 250 -sc_threshold 40 -use_timeline 1 -use_template 1 -init_seg_name sample_video_init_$RepresentationID$.$ext$ -media_seg_name sample_video_chunk_$RepresentationID$_$Number%05d$.$ext$ -f dash -map 0 -s:v:0 1280x720 -b:v:0 937k -b:a:0 375k -map 0 -s:v:1 854x480 -b:v:1 469k -b:a:1 187k -map 0 -s:v:2 640x360 -b:v:2 375k -b:a:2 150k -map 0 -s:v:3 426x240 -b:v:3 312k -b:a:3 125k -map 0 -s:v:4 256x144 -b:v:4 268k -b:a:4 107k -strict -2 /sample_video.mpd
[2022-11-21 13:35:50,149] ERROR: ffmpeg failed to execute command: ['ffmpeg version 5.1.2-1 Copyright (c) 2000-2022 the FFmpeg developers', 'built with gcc 12 (Debian 12.2.0-3)', 'configuration: --prefix=/usr --extra-version=1 --toolchain=hardened --libdir=/usr/lib/x86_64-linux-gnu --incdir=/usr/include/x86_64-linux-gnu --arch=amd64 --enable-gpl --disable-stripping --enable-gnutls --enable-ladspa --enable-libaom --enable-libass --enable-libbluray --enable-libbs2b --enable-libcaca --enable-libcdio --enable-libcodec2 --enable-libdav1d --enable-libflite --enable-libfontconfig --enable-libfreetype --enable-libfribidi --enable-libglslang --enable-libgme --enable-libgsm --enable-libjack --enable-libmp3lame --enable-libmysofa --enable-libopenjpeg --enable-libopenmpt --enable-libopus --enable-libpulse --enable-librabbitmq --enable-librist --enable-librubberband --enable-libshine --enable-libsnappy --enable-libsoxr --enable-libspeex --enable-libsrt --enable-libssh --enable-libsvtav1 --enable-libtheora --enable-libtwolame --enable-libvidstab --enable-libvorbis --enable-libvpx --enable-libwebp --enable-libx265 --enable-libxml2 --enable-libxvid --enable-libzimg --enable-libzmq --enable-libzvbi --enable-lv2 --enable-omx --enable-openal --enable-opencl --enable-opengl --enable-sdl2 --disable-sndio --enable-pocketsphinx --enable-librsvg --enable-libmfx --enable-libdc1394 --enable-libdrm --enable-libiec61883 --enable-chromaprint --enable-frei0r --enable-libx264 --enable-libplacebo --enable-librav1e --enable-shared', 'libavutil      57. 28.100 / 57. 28.100', 'libavcodec     59. 37.100 / 59. 37.100', 'libavformat    59. 27.100 / 59. 27.100', 'libavdevice    59.  7.100 / 59.  7.100', 'libavfilter     8. 44.100 /  8. 44.100', 'libswscale      6.  7.100 /  6.  7.100', 'libswresample   4.  7.100 /  4.  7.100', 'libpostproc    56.  6.100 / 56.  6.100', "Input #0, mov,mp4,m4a,3gp,3g2,mj2, from 'sample_video.mp4':", 'Metadata:', 'major_brand     : isom', 'minor_version   : 512', 'compatible_brands: isomiso2avc1mp41', 'creation_time   : 1970-01-01T00:00:00.000000Z', 'encoder         : Lavf53.24.2', 'Duration: 00:01:02.32, start: 0.000000, bitrate: 1347 kb/s', 'Stream #0:0[0x1](und): Video: h264 (Main) (avc1 / 0x31637661), yuv420p(progressive), 1280x720 [SAR 1:1 DAR 16:9], 959 kb/s, 25 fps, 25 tbr, 12800 tbn (default)', 'Metadata:', 'creation_time   : 1970-01-01T00:00:00.000000Z', 'handler_name    : VideoHandler', 'vendor_id       : [0][0][0][0]', 'Stream #0:1[0x2](und): Audio: aac (LC) (mp4a / 0x6134706D), 48000 Hz, 5.1, fltp, 383 kb/s (default)', 'Metadata:', 'creation_time   : 1970-01-01T00:00:00.000000Z', 'handler_name    : SoundHandler', 'vendor_id       : [0][0][0][0]', 'Stream mapping:', 'Stream #0:0 -> #0:0 (h264 (native) -> h264 (libx264))', 'Stream #0:1 -> #0:1 (aac (native) -> aac (native))', 'Stream #0:0 -> #0:2 (h264 (native) -> h264 (libx264))', 'Stream #0:1 -> #0:3 (aac (native) -> aac (native))', 'Stream #0:0 -> #0:4 (h264 (native) -> h264 (libx264))', 'Stream #0:1 -> #0:5 (aac (native) -> aac (native))', 'Stream #0:0 -> #0:6 (h264 (native) -> h264 (libx264))', 'Stream #0:1 -> #0:7 (aac (native) -> aac (native))', 'Stream #0:0 -> #0:8 (h264 (native) -> h264 (libx264))', 'Stream #0:1 -> #0:9 (aac (native) -> aac (native))', 'Press [q] to stop, [?] for help', '[libx264 @ 0x55d759122080] using SAR=1/1', '[libx264 @ 0x55d759122080] using cpu capabilities: MMX2 SSE2Fast SSSE3 SSE4.2 AVX BMI2', '[libx264 @ 0x55d759122080] profile High, level 3.1, 4:2:0, 8-bit', '[libx264 @ 0x55d759122080] 264 - core 164 r3095 baee400 - H.264/MPEG-4 AVC codec - Copyleft 2003-2022 - http://www.videolan.org/x264.html - options: cabac=1 ref=3 deblock=1:0:0 analyse=0x3:0x113 me=hex subme=7 psy=1 psy_rd=1.00:0.00 mixed_ref=1 me_range=16 chroma_me=1 trellis=1 8x8dct=1 cqm=0 deadzone=21,11 fast_pskip=1 chroma_qp_offset=-2 threads=6 lookahead_threads=1 sliced_threads=0 nr=0 decimate=1 interlaced=0 bluray_compat=0 constrained_intra=0 bframes=1 b_pyramid=0 b_adapt=1 b_bias=0 direct=1 weightb=1 open_gop=0 weightp=2 keyint=250 keyint_min=25 scenecut=40 intra_refresh=0 rc_lookahead=40 rc=abr mbtree=1 bitrate=937 ratetol=1.0 qcomp=0.60 qpmin=0 qpmax=69 qpstep=4 ip_ratio=1.40 aq=1:1.00', '[libx264 @ 0x55d759128a00] using SAR=1280/1281', '[libx264 @ 0x55d759128a00] using cpu capabilities: MMX2 SSE2Fast SSSE3 SSE4.2 AVX BMI2', '[libx264 @ 0x55d759128a00] profile High, level 3.0, 4:2:0, 8-bit', '[libx264 @ 0x55d759128a00] 264 - core 164 r3095 baee400 - H.264/MPEG-4 AVC codec - Copyleft 2003-2022 - http://www.videolan.org/x264.html - options: cabac=1 ref=3 deblock=1:0:0 analyse=0x3:0x113 me=hex subme=7 psy=1 psy_rd=1.00:0.00 mixed_ref=1 me_range=16 chroma_me=1 trellis=1 8x8dct=1 cqm=0 deadzone=21,11 fast_pskip=1 chroma_qp_offset=-2 threads=6 lookahead_threads=1 sliced_threads=0 nr=0 decimate=1 interlaced=0 bluray_compat=0 constrained_intra=0 bframes=1 b_pyramid=0 b_adapt=1 b_bias=0 direct=1 weightb=1 open_gop=0 weightp=2 keyint=250 keyint_min=25 scenecut=40 intra_refresh=0 rc_lookahead=40 rc=abr mbtree=1 bitrate=469 ratetol=1.0 qcomp=0.60 qpmin=0 qpmax=69 qpstep=4 ip_ratio=1.40 aq=1:1.00', '[libx264 @ 0x55d75911d600] using SAR=1/1', '[libx264 @ 0x55d75911d600] using cpu capabilities: MMX2 SSE2Fast SSSE3 SSE4.2 AVX BMI2', '[libx264 @ 0x55d75911d600] profile High, level 3.0, 4:2:0, 8-bit', '[libx264 @ 0x55d75911d600] 264 - core 164 r3095 baee400 - H.264/MPEG-4 AVC codec - Copyleft 2003-2022 - http://www.videolan.org/x264.html - options: cabac=1 ref=3 deblock=1:0:0 analyse=0x3:0x113 me=hex subme=7 psy=1 psy_rd=1.00:0.00 mixed_ref=1 me_range=16 chroma_me=1 trellis=1 8x8dct=1 cqm=0 deadzone=21,11 fast_pskip=1 chroma_qp_offset=-2 threads=6 lookahead_threads=1 sliced_threads=0 nr=0 decimate=1 interlaced=0 bluray_compat=0 constrained_intra=0 bframes=1 b_pyramid=0 b_adapt=1 b_bias=0 direct=1 weightb=1 open_gop=0 weightp=2 keyint=250 keyint_min=25 scenecut=40 intra_refresh=0 rc_lookahead=40 rc=abr mbtree=1 bitrate=375 ratetol=1.0 qcomp=0.60 qpmin=0 qpmax=69 qpstep=4 ip_ratio=1.40 aq=1:1.00', '[libx264 @ 0x55d75911afc0] using SAR=640/639', '[libx264 @ 0x55d75911afc0] using cpu capabilities: MMX2 SSE2Fast SSSE3 SSE4.2 AVX BMI2', '[libx264 @ 0x55d75911afc0] profile High, level 2.1, 4:2:0, 8-bit', '[libx264 @ 0x55d75911afc0] 264 - core 164 r3095 baee400 - H.264/MPEG-4 AVC codec - Copyleft 2003-2022 - http://www.videolan.org/x264.html - options: cabac=1 ref=3 deblock=1:0:0 analyse=0x3:0x113 me=hex subme=7 psy=1 psy_rd=1.00:0.00 mixed_ref=1 me_range=16 chroma_me=1 trellis=1 8x8dct=1 cqm=0 deadzone=21,11 fast_pskip=1 chroma_qp_offset=-2 threads=6 lookahead_threads=1 sliced_threads=0 nr=0 decimate=1 interlaced=0 bluray_compat=0 constrained_intra=0 bframes=1 b_pyramid=0 b_adapt=1 b_bias=0 direct=1 weightb=1 open_gop=0 weightp=2 keyint=250 keyint_min=25 scenecut=40 intra_refresh=0 rc_lookahead=40 rc=abr mbtree=1 bitrate=312 ratetol=1.0 qcomp=0.60 qpmin=0 qpmax=69 qpstep=4 ip_ratio=1.40 aq=1:1.00', '[libx264 @ 0x55d759125bc0] using SAR=1/1', '[libx264 @ 0x55d759125bc0] using cpu capabilities: MMX2 SSE2Fast SSSE3 SSE4.2 AVX BMI2', '[libx264 @ 0x55d759125bc0] profile High, level 1.3, 4:2:0, 8-bit', '[libx264 @ 0x55d759125bc0] 264 - core 164 r3095 baee400 - H.264/MPEG-4 AVC codec - Copyleft 2003-2022 - http://www.videolan.org/x264.html - options: cabac=1 ref=3 deblock=1:0:0 analyse=0x3:0x113 me=hex subme=7 psy=1 psy_rd=1.00:0.00 mixed_ref=1 me_range=16 chroma_me=1 trellis=1 8x8dct=1 cqm=0 deadzone=21,11 fast_pskip=1 chroma_qp_offset=-2 threads=4 lookahead_threads=1 sliced_threads=0 nr=0 decimate=1 interlaced=0 bluray_compat=0 constrained_intra=0 bframes=1 b_pyramid=0 b_adapt=1 b_bias=0 direct=1 weightb=1 open_gop=0 weightp=2 keyint=250 keyint_min=25 scenecut=40 intra_refresh=0 rc_lookahead=40 rc=abr mbtree=1 bitrate=268 ratetol=1.0 qcomp=0.60 qpmin=0 qpmax=69 qpstep=4 ip_ratio=1.40 aq=1:1.00', "[dash @ 0x55d75911aa40] Opening '/sample_video_init_0.m4s' for writing", 'Could not write header for output file #0 (incorrect codec parameters ?): Permission denied', 'Error initializing output stream 0:8 --', '[libx264 @ 0x55d759122080] final ratefactor: 28.92', '[aac @ 0x55d759128240] Qavg: 14048.350', '[aac @ 0x55d759128240] 2 frames left in the queue on closing', '[libx264 @ 0x55d759128a00] final ratefactor: 31.46', '[aac @ 0x55d759123c80] Qavg: 9443.786', '[aac @ 0x55d759123c80] 2 frames left in the queue on closing', '[libx264 @ 0x55d75911d600] final ratefactor: 30.95', '[aac @ 0x55d75913ea80] Qavg: 7517.056', '[aac @ 0x55d75913ea80] 2 frames left in the queue on closing', '[libx264 @ 0x55d75911afc0] final ratefactor: 28.99', '[aac @ 0x55d75911be00] Qavg: 5065.700', '[aac @ 0x55d75911be00] 2 frames left in the queue on closing', '[libx264 @ 0x55d759125bc0] final ratefactor: 25.83', '[aac @ 0x55d759126600] Qavg: 3870.008', '[aac @ 0x55d759126600] 2 frames left in the queue on closing', 'Conversion failed!']
[2022-11-21 13:39:28,135] INFO: [Errno 17] File exists: '/home/kali/Downloads/Streaming-Protocols-Server/NEW (with webcam + metrics)/dash'
[2022-11-21 13:39:28,135] DEBUG: Using selector: EpollSelector
[2022-11-21 13:39:28,136] INFO: ffmpeg running command: ffmpeg -y -i sample_video.mp4 -c:v libx264 -c:a aac -bf 1 -keyint_min 25 -g 250 -sc_threshold 40 -use_timeline 1 -use_template 1 -init_seg_name dash_init_$RepresentationID$.$ext$ -media_seg_name dash_chunk_$RepresentationID$_$Number%05d$.$ext$ -f dash -map 0 -s:v:0 256x144 -b:v:0 95k -b:a:0 64k -map 0 -s:v:1 426x240 -b:v:1 150k -b:a:1 94k -map 0 -s:v:2 640x360 -b:v:2 276k -b:a:2 128k -map 0 -s:v:3 854x480 -b:v:3 750k -b:a:3 192k -map 0 -s:v:4 1280x720 -b:v:4 2048k -b:a:4 320k -map 0 -s:v:5 1920x1080 -b:v:5 4096k -b:a:5 320k -strict -2 "/home/kali/Downloads/Streaming-Protocols-Server/NEW (with webcam + metrics)/dash/dash.mpd"
[2022-11-21 13:40:19,192] INFO: ffmpeg executed command successfully
[2022-11-21 13:41:22,343] INFO: [Errno 17] File exists: '/home/kali/Downloads/Streaming-Protocols-Server/NEW (with webcam + metrics)/dash'
[2022-11-21 13:41:22,343] DEBUG: Using selector: EpollSelector
[2022-11-21 13:41:22,344] INFO: ffmpeg running command: ffmpeg -y -i sample_video.mp4 -c:v libx264 -c:a aac -bf 1 -keyint_min 25 -g 250 -sc_threshold 40 -use_timeline 1 -use_template 1 -init_seg_name dash_init_$RepresentationID$.$ext$ -media_seg_name dash_chunk_$RepresentationID$_$Number%05d$.$ext$ -f dash -map 0 -s:v:0 256x144 -b:v:0 95k -b:a:0 64k -map 0 -s:v:1 426x240 -b:v:1 150k -b:a:1 94k -map 0 -s:v:2 640x360 -b:v:2 276k -b:a:2 128k -map 0 -s:v:3 854x480 -b:v:3 750k -b:a:3 192k -map 0 -s:v:4 1280x720 -b:v:4 2048k -b:a:4 320k -map 0 -s:v:5 1920x1080 -b:v:5 4096k -b:a:5 320k -strict -2 "/home/kali/Downloads/Streaming-Protocols-Server/NEW (with webcam + metrics)/dash/dash.mpd"
[2022-11-21 13:42:13,408] INFO: ffmpeg executed command successfully
